<?xml version="1.0" encoding="UTF-8" standalone="no"?>
<!-- Created with Inkscape (http://www.inkscape.org/) -->
<svg
   xmlns:svg="http://www.w3.org/2000/svg"
   xmlns="http://www.w3.org/2000/svg"
   version="1.0"
   width="121.287"
   height="114.072"
   viewBox="0 0 121.287 114.072"
   id="Fuel"
   xml:space="preserve"><defs
   id="defs1517" />









<g
   transform="translate(-53.07093,-1.830032)"
   id="g1510">
	<g
   id="g1512">
		<path
   d="M 121.156,45.118 L 120.933,44.729 L 120.621,44.415 L 120.238,44.192 L 119.59,44.067 L 119.572,43.204 L 119.459,42.776 L 119.236,42.387 L 118.74,41.953 L 118.33,41.781 L 117.892,41.724 L 108.345,41.724 L 104.854,54.824 L 104.785,55.789 L 104.893,56.43 L 105.11,57.041 L 105.44,57.601 L 106.112,58.297 L 106.955,58.783 L 108.215,59.039 L 109.485,58.816 L 110.335,58.348 L 111.023,57.667 L 111.502,56.823 L 111.678,56.2 L 111.74,55.554 L 111.746,48.541 L 112.816,48.541 L 112.816,60.23 L 121.287,60.23 L 121.287,45.769 L 121.156,45.118 z M 114.48,44.077 L 113.826,44.21 L 113.443,44.432 L 113.135,44.747 L 112.913,45.129 L 112.782,45.786 L 111.329,45.786 L 110.042,47.058 L 110.025,55.786 L 109.802,56.442 L 109.347,56.967 L 108.72,57.276 L 108.032,57.321 L 107.37,57.098 L 107.001,56.819 L 106.614,56.237 L 106.493,55.79 L 106.487,55.323 L 106.607,54.872 L 109.655,43.438 L 114.479,43.438 L 114.479,44.077 L 114.48,44.077 z M 119.356,48.756 L 114.691,48.756 L 114.691,45.786 L 119.356,45.786 L 119.356,48.756 z "
   id="path1514" />
	</g>
</g>
</svg>